
<global>
ampeg_attack=0.002
ampeg_decay=0.18
ampeg_release=0.18
ampeg_sustain=0
cutoff=1000
fil_type=lpf_1p
</global>

<group>
group_label=PP_RR1
seq_length=4
seq_position=1

<region>
end=48000
hikey=D#2
hivel=63
lokey=C2
lovel=0
offset=18800
pitch_keycenter=D2
sample=Fender_Stratocaster_Muted_Staccato_RR1_PP_D3.opus
volume=+13.36
</region>

<region>
end=48000
hikey=F2
hivel=63
lokey=E2
lovel=0
offset=19172
pitch_keycenter=E2
sample=Fender_Stratocaster_Muted_Staccato_RR1_PP_E3.opus
volume=+15.82
</region>

<region>
end=48000
hikey=G2
hivel=63
lokey=F#2
lovel=0
offset=18843
pitch_keycenter=F#2
sample=Fender_Stratocaster_Muted_Staccato_RR1_PP_F#3.opus
volume=+13.42
</region>

<region>
end=48000
hikey=A2
hivel=63
lokey=G#2
lovel=0
offset=17388
pitch_keycenter=G#2
sample=Fender_Stratocaster_Muted_Staccato_RR1_PP_G#3.opus
volume=+10.86
</region>

<region>
end=48000
hikey=B2
hivel=63
lokey=A#2
lovel=0
offset=17838
pitch_keycenter=A#2
sample=Fender_Stratocaster_Muted_Staccato_RR1_PP_A#3.opus
volume=+14.41
</region>

<region>
end=48000
hikey=C#3
hivel=63
lokey=C3
lovel=0
offset=15385
pitch_keycenter=C3
sample=Fender_Stratocaster_Muted_Staccato_RR1_PP_C4.opus
volume=+13.83
</region>

<region>
end=48000
hikey=D#3
hivel=63
lokey=D3
lovel=0
offset=19644
pitch_keycenter=D3
sample=Fender_Stratocaster_Muted_Staccato_RR1_PP_D4.opus
volume=+13.24
</region>

<region>
end=48000
hikey=F3
hivel=63
lokey=E3
lovel=0
offset=19102
pitch_keycenter=E3
sample=Fender_Stratocaster_Muted_Staccato_RR1_PP_E4.opus
volume=+14.16
</region>

<region>
end=48000
hikey=G3
hivel=63
lokey=F#3
lovel=0
offset=18020
pitch_keycenter=F#3
sample=Fender_Stratocaster_Muted_Staccato_RR1_PP_F#4.opus
volume=+14.85
</region>

<region>
end=48000
hikey=A3
hivel=63
lokey=G#3
lovel=0
offset=19515
pitch_keycenter=G#3
sample=Fender_Stratocaster_Muted_Staccato_RR1_PP_G#4.opus
volume=+15.21
</region>

<region>
end=48000
hikey=B3
hivel=63
lokey=A#3
lovel=0
offset=19980
pitch_keycenter=A#3
sample=Fender_Stratocaster_Muted_Staccato_RR1_PP_A#4.opus
volume=+12.71
</region>

<region>
end=36347
hikey=C#4
hivel=63
lokey=C4
lovel=0
offset=18571
sample=Fender_Stratocaster_Muted_Staccato_RR1_PP_C5.opus
volume=+15.14
</region>

<region>
end=44898
hikey=D#4
hivel=63
lokey=D4
lovel=0
offset=17918
pitch_keycenter=D4
sample=Fender_Stratocaster_Muted_Staccato_RR1_PP_D5.opus
volume=+16.01
</region>

<region>
end=48000
hikey=F4
hivel=63
lokey=E4
lovel=0
offset=19140
pitch_keycenter=E4
sample=Fender_Stratocaster_Muted_Staccato_RR1_PP_E5.opus
volume=+11.07
</region>

<region>
end=48000
hikey=G4
hivel=63
lokey=F#4
lovel=0
offset=20356
pitch_keycenter=F#4
sample=Fender_Stratocaster_Muted_Staccato_RR1_PP_F#5.opus
volume=+17.31
</region>

<region>
end=48000
hikey=A4
hivel=63
lokey=G#4
lovel=0
offset=19874
pitch_keycenter=G#4
sample=Fender_Stratocaster_Muted_Staccato_RR1_PP_G#5.opus
volume=+19.06
</region>

<region>
end=48000
hikey=B4
hivel=63
lokey=A#4
lovel=0
offset=19085
pitch_keycenter=A#4
sample=Fender_Stratocaster_Muted_Staccato_RR1_PP_A#5.opus
volume=+13.62
</region>

<region>
end=48000
hikey=C#5
hivel=63
lokey=C5
lovel=0
offset=18940
pitch_keycenter=C5
sample=Fender_Stratocaster_Muted_Staccato_RR1_PP_C6.opus
volume=+19.71
</region>

<region>
end=48000
hikey=D#5
hivel=63
lokey=D5
lovel=0
offset=17541
pitch_keycenter=D5
sample=Fender_Stratocaster_Muted_Staccato_RR1_PP_D6.opus
volume=+18.73
</region>

<region>
end=48000
hikey=F5
hivel=63
lokey=E5
lovel=0
offset=18120
pitch_keycenter=E5
sample=Fender_Stratocaster_Muted_Staccato_RR1_PP_E6.opus
volume=+17.16
</region>

<region>
end=48000
hikey=G5
hivel=63
lokey=F#5
lovel=0
offset=19800
pitch_keycenter=F#5
sample=Fender_Stratocaster_Muted_Staccato_RR1_PP_F#6.opus
volume=+12.46
</region>

<region>
end=48000
hikey=A5
hivel=63
lokey=G#5
lovel=0
offset=18911
pitch_keycenter=G#5
sample=Fender_Stratocaster_Muted_Staccato_RR1_PP_G#6.opus
volume=+16.14
</region>

<region>
end=48000
hikey=B5
hivel=63
lokey=A#5
lovel=0
offset=19548
pitch_keycenter=A#5
sample=Fender_Stratocaster_Muted_Staccato_RR1_PP_A#6.opus
volume=+13.94
</region>

<region>
end=31066
hikey=C#6
hivel=63
lokey=C6
lovel=0
offset=17936
pitch_keycenter=C6
sample=Fender_Stratocaster_Muted_Staccato_RR1_PP_C7.opus
volume=+16.25
</region>
</group>

<group>
group_label=PP_RR2
seq_length=4
seq_position=2

<region>
end=48000
hikey=D#2
hivel=63
lokey=C2
lovel=0
offset=18468
pitch_keycenter=D2
sample=Fender_Stratocaster_Muted_Staccato_RR2_PP_D3.opus
volume=+13.13
</region>

<region>
end=48000
hikey=F2
hivel=63
lokey=E2
lovel=0
offset=19669
pitch_keycenter=E2
sample=Fender_Stratocaster_Muted_Staccato_RR2_PP_E3.opus
volume=+10.56
</region>

<region>
end=48000
hikey=G2
hivel=63
lokey=F#2
lovel=0
offset=19689
pitch_keycenter=F#2
sample=Fender_Stratocaster_Muted_Staccato_RR2_PP_F#3.opus
volume=+12.62
</region>

<region>
end=48000
hikey=A2
hivel=63
lokey=G#2
lovel=0
offset=18664
pitch_keycenter=G#2
sample=Fender_Stratocaster_Muted_Staccato_RR2_PP_G#3.opus
volume=+11.56
</region>

<region>
end=48000
hikey=B2
hivel=63
lokey=A#2
lovel=0
offset=19474
pitch_keycenter=A#2
sample=Fender_Stratocaster_Muted_Staccato_RR2_PP_A#3.opus
volume=+12.58
</region>

<region>
end=48000
hikey=C#3
hivel=63
lokey=C3
lovel=0
offset=19944
pitch_keycenter=C3
sample=Fender_Stratocaster_Muted_Staccato_RR2_PP_C4.opus
volume=+10.72
</region>

<region>
end=48000
hikey=D#3
hivel=63
lokey=D3
lovel=0
offset=19197
pitch_keycenter=D3
sample=Fender_Stratocaster_Muted_Staccato_RR2_PP_D4.opus
volume=+13.68
</region>

<region>
end=48000
hikey=F3
hivel=63
lokey=E3
lovel=0
offset=19124
pitch_keycenter=E3
sample=Fender_Stratocaster_Muted_Staccato_RR2_PP_E4.opus
volume=+13.39
</region>

<region>
end=48000
hikey=G3
hivel=63
lokey=F#3
lovel=0
offset=17749
pitch_keycenter=F#3
sample=Fender_Stratocaster_Muted_Staccato_RR2_PP_F#4.opus
volume=+14.85
</region>

<region>
end=48000
hikey=A3
hivel=63
lokey=G#3
lovel=0
offset=19218
pitch_keycenter=G#3
sample=Fender_Stratocaster_Muted_Staccato_RR2_PP_G#4.opus
volume=+13.19
</region>

<region>
end=48000
hikey=B3
hivel=63
lokey=A#3
lovel=0
offset=18545
pitch_keycenter=A#3
sample=Fender_Stratocaster_Muted_Staccato_RR2_PP_A#4.opus
volume=+12.95
</region>

<region>
end=48000
hikey=C#4
hivel=63
lokey=C4
lovel=0
offset=20429
sample=Fender_Stratocaster_Muted_Staccato_RR2_PP_C5.opus
volume=+15.98
</region>

<region>
end=48000
hikey=D#4
hivel=63
lokey=D4
lovel=0
offset=18888
pitch_keycenter=D4
sample=Fender_Stratocaster_Muted_Staccato_RR2_PP_D5.opus
volume=+13.56
</region>

<region>
end=48000
hikey=F4
hivel=63
lokey=E4
lovel=0
offset=17321
pitch_keycenter=E4
sample=Fender_Stratocaster_Muted_Staccato_RR2_PP_E5.opus
volume=+11.90
</region>

<region>
end=48000
hikey=G4
hivel=63
lokey=F#4
lovel=0
offset=18679
pitch_keycenter=F#4
sample=Fender_Stratocaster_Muted_Staccato_RR2_PP_F#5.opus
volume=+15.52
</region>

<region>
end=48000
hikey=A4
hivel=63
lokey=G#4
lovel=0
offset=19086
pitch_keycenter=G#4
sample=Fender_Stratocaster_Muted_Staccato_RR2_PP_G#5.opus
volume=+13.43
</region>

<region>
end=48000
hikey=B4
hivel=63
lokey=A#4
lovel=0
offset=19053
pitch_keycenter=A#4
sample=Fender_Stratocaster_Muted_Staccato_RR2_PP_A#5.opus
volume=+13.24
</region>

<region>
end=48000
hikey=C#5
hivel=63
lokey=C5
lovel=0
offset=18708
pitch_keycenter=C5
sample=Fender_Stratocaster_Muted_Staccato_RR2_PP_C6.opus
volume=+21.67
</region>

<region>
end=48000
hikey=D#5
hivel=63
lokey=D5
lovel=0
offset=18673
pitch_keycenter=D5
sample=Fender_Stratocaster_Muted_Staccato_RR2_PP_D6.opus
volume=+17.57
</region>

<region>
end=48000
hikey=F5
hivel=63
lokey=E5
lovel=0
offset=18281
pitch_keycenter=E5
sample=Fender_Stratocaster_Muted_Staccato_RR2_PP_E6.opus
volume=+15.40
</region>

<region>
end=48000
hikey=G5
hivel=63
lokey=F#5
lovel=0
offset=18857
pitch_keycenter=F#5
sample=Fender_Stratocaster_Muted_Staccato_RR2_PP_F#6.opus
volume=+12.08
</region>

<region>
end=48000
hikey=A5
hivel=63
lokey=G#5
lovel=0
offset=17946
pitch_keycenter=G#5
sample=Fender_Stratocaster_Muted_Staccato_RR2_PP_G#6.opus
volume=+16.06
</region>

<region>
end=48000
hikey=B5
hivel=63
lokey=A#5
lovel=0
offset=19404
pitch_keycenter=A#5
sample=Fender_Stratocaster_Muted_Staccato_RR2_PP_A#6.opus
volume=+15.66
</region>

<region>
end=48000
hikey=C#6
hivel=63
lokey=C6
lovel=0
offset=18081
pitch_keycenter=C6
sample=Fender_Stratocaster_Muted_Staccato_RR2_PP_C7.opus
volume=+15.36
</region>
</group>

<group>
group_label=PP_RR3
seq_length=4
seq_position=3

<region>
end=48000
hikey=D#2
hivel=63
lokey=C2
lovel=0
offset=20021
pitch_keycenter=D2
sample=Fender_Stratocaster_Muted_Staccato_RR3_PP_D3.opus
volume=+13.35
</region>

<region>
end=48000
hikey=F2
hivel=63
lokey=E2
lovel=0
offset=18909
pitch_keycenter=E2
sample=Fender_Stratocaster_Muted_Staccato_RR3_PP_E3.opus
volume=+10.98
</region>

<region>
end=48000
hikey=G2
hivel=63
lokey=F#2
lovel=0
offset=18453
pitch_keycenter=F#2
sample=Fender_Stratocaster_Muted_Staccato_RR3_PP_F#3.opus
volume=+11.84
</region>

<region>
end=48000
hikey=A2
hivel=63
lokey=G#2
lovel=0
offset=18348
pitch_keycenter=G#2
sample=Fender_Stratocaster_Muted_Staccato_RR3_PP_G#3.opus
volume=+12.53
</region>

<region>
end=48000
hikey=B2
hivel=63
lokey=A#2
lovel=0
offset=16913
pitch_keycenter=A#2
sample=Fender_Stratocaster_Muted_Staccato_RR3_PP_A#3.opus
volume=+12.91
</region>

<region>
end=48000
hikey=C#3
hivel=63
lokey=C3
lovel=0
offset=18269
pitch_keycenter=C3
sample=Fender_Stratocaster_Muted_Staccato_RR3_PP_C4.opus
volume=+10.09
</region>

<region>
end=48000
hikey=D#3
hivel=63
lokey=D3
lovel=0
offset=18132
pitch_keycenter=D3
sample=Fender_Stratocaster_Muted_Staccato_RR3_PP_D4.opus
volume=+12.60
</region>

<region>
end=48000
hikey=F3
hivel=63
lokey=E3
lovel=0
offset=17538
pitch_keycenter=E3
sample=Fender_Stratocaster_Muted_Staccato_RR3_PP_E4.opus
volume=+13.31
</region>

<region>
end=48000
hikey=G3
hivel=63
lokey=F#3
lovel=0
offset=19198
pitch_keycenter=F#3
sample=Fender_Stratocaster_Muted_Staccato_RR3_PP_F#4.opus
volume=+14.52
</region>

<region>
end=48000
hikey=A3
hivel=63
lokey=G#3
lovel=0
offset=17875
pitch_keycenter=G#3
sample=Fender_Stratocaster_Muted_Staccato_RR3_PP_G#4.opus
volume=+13.19
</region>

<region>
end=48000
hikey=B3
hivel=63
lokey=A#3
lovel=0
offset=18066
pitch_keycenter=A#3
sample=Fender_Stratocaster_Muted_Staccato_RR3_PP_A#4.opus
volume=+14.06
</region>

<region>
end=48000
hikey=C#4
hivel=63
lokey=C4
lovel=0
offset=18725
sample=Fender_Stratocaster_Muted_Staccato_RR3_PP_C5.opus
volume=+12.88
</region>

<region>
end=48000
hikey=D#4
hivel=63
lokey=D4
lovel=0
offset=17951
pitch_keycenter=D4
sample=Fender_Stratocaster_Muted_Staccato_RR3_PP_D5.opus
volume=+13.66
</region>

<region>
end=48000
hikey=F4
hivel=63
lokey=E4
lovel=0
offset=18279
pitch_keycenter=E4
sample=Fender_Stratocaster_Muted_Staccato_RR3_PP_E5.opus
volume=+13.23
</region>

<region>
end=48000
hikey=G4
hivel=63
lokey=F#4
lovel=0
offset=19012
pitch_keycenter=F#4
sample=Fender_Stratocaster_Muted_Staccato_RR3_PP_F#5.opus
volume=+16.14
</region>

<region>
end=48000
hikey=A4
hivel=63
lokey=G#4
lovel=0
offset=11232
pitch_keycenter=G#4
sample=Fender_Stratocaster_Muted_Staccato_RR3_PP_G#5.opus
volume=+13.34
</region>

<region>
end=48000
hikey=B4
hivel=63
lokey=A#4
lovel=0
offset=18317
pitch_keycenter=A#4
sample=Fender_Stratocaster_Muted_Staccato_RR3_PP_A#5.opus
volume=+13.93
</region>

<region>
end=48000
hikey=C#5
hivel=63
lokey=C5
lovel=0
offset=20006
pitch_keycenter=C5
sample=Fender_Stratocaster_Muted_Staccato_RR3_PP_C6.opus
volume=+16.74
</region>

<region>
end=48000
hikey=D#5
hivel=63
lokey=D5
lovel=0
offset=17580
pitch_keycenter=D5
sample=Fender_Stratocaster_Muted_Staccato_RR3_PP_D6.opus
volume=+15.89
</region>

<region>
end=48000
hikey=F5
hivel=63
lokey=E5
lovel=0
offset=17637
pitch_keycenter=E5
sample=Fender_Stratocaster_Muted_Staccato_RR3_PP_E6.opus
volume=+15.39
</region>

<region>
end=48000
hikey=G5
hivel=63
lokey=F#5
lovel=0
offset=18907
pitch_keycenter=F#5
sample=Fender_Stratocaster_Muted_Staccato_RR3_PP_F#6.opus
volume=+12.49
</region>

<region>
end=48000
hikey=A5
hivel=63
lokey=G#5
lovel=0
offset=18927
pitch_keycenter=G#5
sample=Fender_Stratocaster_Muted_Staccato_RR3_PP_G#6.opus
volume=+15.12
</region>

<region>
end=48000
hikey=B5
hivel=63
lokey=A#5
lovel=0
offset=19276
pitch_keycenter=A#5
sample=Fender_Stratocaster_Muted_Staccato_RR3_PP_A#6.opus
volume=+13.90
</region>

<region>
end=48000
hikey=C#6
hivel=63
lokey=C6
lovel=0
offset=17087
pitch_keycenter=C6
sample=Fender_Stratocaster_Muted_Staccato_RR3_PP_C7.opus
volume=+14.79
</region>
</group>

<group>
group_label=PP_RR4
seq_length=4
seq_position=4

<region>
end=48000
hikey=D#2
hivel=63
lokey=C2
lovel=0
offset=18597
pitch_keycenter=D2
sample=Fender_Stratocaster_Muted_Staccato_RR4_PP_D3.opus
volume=+13.62
</region>

<region>
end=48000
hikey=F2
hivel=63
lokey=E2
lovel=0
offset=20018
pitch_keycenter=E2
sample=Fender_Stratocaster_Muted_Staccato_RR4_PP_E3.opus
volume=+10.34
</region>

<region>
end=48000
hikey=G2
hivel=63
lokey=F#2
lovel=0
offset=17871
pitch_keycenter=F#2
sample=Fender_Stratocaster_Muted_Staccato_RR4_PP_F#3.opus
volume=+11.83
</region>

<region>
end=48000
hikey=A2
hivel=63
lokey=G#2
lovel=0
offset=18230
pitch_keycenter=G#2
sample=Fender_Stratocaster_Muted_Staccato_RR4_PP_G#3.opus
volume=+12.90
</region>

<region>
end=48000
hikey=B2
hivel=63
lokey=A#2
lovel=0
offset=18582
pitch_keycenter=A#2
sample=Fender_Stratocaster_Muted_Staccato_RR4_PP_A#3.opus
volume=+11.90
</region>

<region>
end=48000
hikey=C#3
hivel=63
lokey=C3
lovel=0
offset=18392
pitch_keycenter=C3
sample=Fender_Stratocaster_Muted_Staccato_RR4_PP_C4.opus
volume=+10.04
</region>

<region>
end=48000
hikey=D#3
hivel=63
lokey=D3
lovel=0
offset=18624
pitch_keycenter=D3
sample=Fender_Stratocaster_Muted_Staccato_RR4_PP_D4.opus
volume=+11.00
</region>

<region>
end=48000
hikey=F3
hivel=63
lokey=E3
lovel=0
offset=19049
pitch_keycenter=E3
sample=Fender_Stratocaster_Muted_Staccato_RR4_PP_E4.opus
volume=+14.17
</region>

<region>
end=48000
hikey=G3
hivel=63
lokey=F#3
lovel=0
offset=17942
pitch_keycenter=F#3
sample=Fender_Stratocaster_Muted_Staccato_RR4_PP_F#4.opus
volume=+14.35
</region>

<region>
end=48000
hikey=A3
hivel=63
lokey=G#3
lovel=0
offset=18624
pitch_keycenter=G#3
sample=Fender_Stratocaster_Muted_Staccato_RR4_PP_G#4.opus
volume=+13.31
</region>

<region>
end=48000
hikey=B3
hivel=63
lokey=A#3
lovel=0
offset=19043
pitch_keycenter=A#3
sample=Fender_Stratocaster_Muted_Staccato_RR4_PP_A#4.opus
volume=+10.88
</region>

<region>
end=48000
hikey=C#4
hivel=63
lokey=C4
lovel=0
offset=19364
sample=Fender_Stratocaster_Muted_Staccato_RR4_PP_C5.opus
volume=+13.57
</region>

<region>
end=48000
hikey=D#4
hivel=63
lokey=D4
lovel=0
offset=18590
pitch_keycenter=D4
sample=Fender_Stratocaster_Muted_Staccato_RR4_PP_D5.opus
volume=+15.56
</region>

<region>
end=48000
hikey=F4
hivel=63
lokey=E4
lovel=0
offset=19185
pitch_keycenter=E4
sample=Fender_Stratocaster_Muted_Staccato_RR4_PP_E5.opus
volume=+14.41
</region>

<region>
end=48000
hikey=G4
hivel=63
lokey=F#4
lovel=0
offset=19414
pitch_keycenter=F#4
sample=Fender_Stratocaster_Muted_Staccato_RR4_PP_F#5.opus
volume=+14.27
</region>

<region>
end=48000
hikey=A4
hivel=63
lokey=G#4
lovel=0
offset=18453
pitch_keycenter=G#4
sample=Fender_Stratocaster_Muted_Staccato_RR4_PP_G#5.opus
volume=+14.94
</region>

<region>
end=36450
hikey=B4
hivel=63
lokey=A#4
lovel=0
offset=18084
pitch_keycenter=A#4
sample=Fender_Stratocaster_Muted_Staccato_RR4_PP_A#5.opus
volume=+14.91
</region>

<region>
end=48000
hikey=C#5
hivel=63
lokey=C5
lovel=0
offset=19202
pitch_keycenter=C5
sample=Fender_Stratocaster_Muted_Staccato_RR4_PP_C6.opus
volume=+15.62
</region>

<region>
end=48000
hikey=D#5
hivel=63
lokey=D5
lovel=0
offset=18430
pitch_keycenter=D5
sample=Fender_Stratocaster_Muted_Staccato_RR4_PP_D6.opus
volume=+15.90
</region>

<region>
end=48000
hikey=F5
hivel=63
lokey=E5
lovel=0
offset=19050
pitch_keycenter=E5
sample=Fender_Stratocaster_Muted_Staccato_RR4_PP_E6.opus
volume=+14.33
</region>

<region>
end=48000
hikey=G5
hivel=63
lokey=F#5
lovel=0
offset=20680
pitch_keycenter=F#5
sample=Fender_Stratocaster_Muted_Staccato_RR4_PP_F#6.opus
volume=+11.76
</region>

<region>
end=48000
hikey=A5
hivel=63
lokey=G#5
lovel=0
offset=17914
pitch_keycenter=G#5
sample=Fender_Stratocaster_Muted_Staccato_RR4_PP_G#6.opus
volume=+14.99
</region>

<region>
end=48000
hikey=B5
hivel=63
lokey=A#5
lovel=0
offset=19542
pitch_keycenter=A#5
sample=Fender_Stratocaster_Muted_Staccato_RR4_PP_A#6.opus
volume=+14.53
</region>

<region>
end=48000
hikey=C#6
hivel=63
lokey=C6
lovel=0
offset=18372
pitch_keycenter=C6
sample=Fender_Stratocaster_Muted_Staccato_RR4_PP_C7.opus
volume=+14.92
</region>
</group>

<group>
group_label=FF_RR1
seq_length=4
seq_position=1

<region>
end=48000
hikey=D#2
hivel=127
lokey=C2
lovel=64
offset=18320
pitch_keycenter=D2
sample=Fender_Stratocaster_Muted_Staccato_RR1_FF_D3.opus
volume=-0.17
</region>

<region>
end=48000
hikey=F2
hivel=127
lokey=E2
lovel=64
offset=18954
pitch_keycenter=E2
sample=Fender_Stratocaster_Muted_Staccato_RR1_FF_E3.opus
volume=+5.00
</region>

<region>
end=48000
hikey=G2
hivel=127
lokey=F#2
lovel=64
offset=17141
pitch_keycenter=F#2
sample=Fender_Stratocaster_Muted_Staccato_RR1_FF_F#3.opus
volume=+4.29
</region>

<region>
end=48000
hikey=A2
hivel=127
lokey=G#2
lovel=64
offset=19827
pitch_keycenter=G#2
sample=Fender_Stratocaster_Muted_Staccato_RR1_FF_G#3.opus
volume=+3.74
</region>

<region>
end=48000
hikey=B2
hivel=127
lokey=A#2
lovel=64
offset=13361
pitch_keycenter=A#2
sample=Fender_Stratocaster_Muted_Staccato_RR1_FF_A#3.opus
volume=+3.23
</region>

<region>
end=48000
hikey=C#3
hivel=127
lokey=C3
lovel=64
offset=18265
pitch_keycenter=C3
sample=Fender_Stratocaster_Muted_Staccato_RR1_FF_C4.opus
volume=+6.05
</region>

<region>
end=48000
hikey=D#3
hivel=127
lokey=D3
lovel=64
offset=19793
pitch_keycenter=D3
sample=Fender_Stratocaster_Muted_Staccato_RR1_FF_D4.opus
volume=+8.86
</region>

<region>
end=48000
hikey=F3
hivel=127
lokey=E3
lovel=64
offset=18050
pitch_keycenter=E3
sample=Fender_Stratocaster_Muted_Staccato_RR1_FF_E4.opus
volume=+7.03
</region>

<region>
end=48000
hikey=G3
hivel=127
lokey=F#3
lovel=64
offset=18528
pitch_keycenter=F#3
sample=Fender_Stratocaster_Muted_Staccato_RR1_FF_F#4.opus
volume=+12.23
</region>

<region>
end=48000
hikey=A3
hivel=127
lokey=G#3
lovel=64
offset=18604
pitch_keycenter=G#3
sample=Fender_Stratocaster_Muted_Staccato_RR1_FF_G#4.opus
volume=+11.36
</region>

<region>
end=48000
hikey=B3
hivel=127
lokey=A#3
lovel=64
offset=20594
pitch_keycenter=A#3
sample=Fender_Stratocaster_Muted_Staccato_RR1_FF_A#4.opus
volume=+14.69
</region>

<region>
end=48000
hikey=C#4
hivel=127
lokey=C4
lovel=64
offset=20000
sample=Fender_Stratocaster_Muted_Staccato_RR1_FF_C5.opus
volume=+11.48
</region>

<region>
end=48000
hikey=D#4
hivel=127
lokey=D4
lovel=64
offset=9046
pitch_keycenter=D4
sample=Fender_Stratocaster_Muted_Staccato_RR1_FF_D5.opus
volume=+11.53
</region>

<region>
end=48000
hikey=F4
hivel=127
lokey=E4
lovel=64
offset=19065
pitch_keycenter=E4
sample=Fender_Stratocaster_Muted_Staccato_RR1_FF_E5.opus
volume=+8.48
</region>

<region>
end=48000
hikey=G4
hivel=127
lokey=F#4
lovel=64
offset=15382
pitch_keycenter=F#4
sample=Fender_Stratocaster_Muted_Staccato_RR1_FF_F#5.opus
volume=+6.91
</region>

<region>
end=48000
hikey=A4
hivel=127
lokey=G#4
lovel=64
offset=14937
pitch_keycenter=G#4
sample=Fender_Stratocaster_Muted_Staccato_RR1_FF_G#5.opus
volume=+7.68
</region>

<region>
end=48000
hikey=B4
hivel=127
lokey=A#4
lovel=64
offset=16433
pitch_keycenter=A#4
sample=Fender_Stratocaster_Muted_Staccato_RR1_FF_A#5.opus
volume=+8.02
</region>

<region>
end=25627
hikey=C#5
hivel=127
lokey=C5
lovel=64
offset=7645
pitch_keycenter=C5
sample=Fender_Stratocaster_Muted_Staccato_RR1_FF_C6.opus
volume=+7.83
</region>

<region>
end=48000
hikey=D#5
hivel=127
lokey=D5
lovel=64
offset=17696
pitch_keycenter=D5
sample=Fender_Stratocaster_Muted_Staccato_RR1_FF_D6.opus
volume=+12.73
</region>

<region>
end=48000
hikey=F5
hivel=127
lokey=E5
lovel=64
offset=11112
pitch_keycenter=E5
sample=Fender_Stratocaster_Muted_Staccato_RR1_FF_E6.opus
volume=+11.38
</region>

<region>
end=38132
hikey=G5
hivel=127
lokey=F#5
lovel=64
offset=19168
pitch_keycenter=F#5
sample=Fender_Stratocaster_Muted_Staccato_RR1_FF_F#6.opus
volume=+10.90
</region>

<region>
end=48000
hikey=A5
hivel=127
lokey=G#5
lovel=64
offset=18136
pitch_keycenter=G#5
sample=Fender_Stratocaster_Muted_Staccato_RR1_FF_G#6.opus
volume=+15.36
</region>

<region>
end=48000
hikey=B5
hivel=127
lokey=A#5
lovel=64
offset=19265
pitch_keycenter=A#5
sample=Fender_Stratocaster_Muted_Staccato_RR1_FF_A#6.opus
volume=+15.26
</region>

<region>
end=48000
hikey=C#6
hivel=127
lokey=C6
lovel=64
offset=18255
pitch_keycenter=C6
sample=Fender_Stratocaster_Muted_Staccato_RR1_FF_C7.opus
volume=+16.05
</region>
</group>

<group>
group_label=FF_RR2
seq_length=4
seq_position=2

<region>
end=48000
hikey=D#2
hivel=127
lokey=C2
lovel=64
offset=19301
pitch_keycenter=D2
sample=Fender_Stratocaster_Muted_Staccato_RR2_FF_D3.opus
volume=+1.07
</region>

<region>
end=48000
hikey=F2
hivel=127
lokey=E2
lovel=64
offset=18929
pitch_keycenter=E2
sample=Fender_Stratocaster_Muted_Staccato_RR2_FF_E3.opus
volume=+4.68
</region>

<region>
end=48000
hikey=G2
hivel=127
lokey=F#2
lovel=64
offset=17498
pitch_keycenter=F#2
sample=Fender_Stratocaster_Muted_Staccato_RR2_FF_F#3.opus
volume=+4.37
</region>

<region>
end=48000
hikey=A2
hivel=127
lokey=G#2
lovel=64
offset=15987
pitch_keycenter=G#2
sample=Fender_Stratocaster_Muted_Staccato_RR2_FF_G#3.opus
volume=+3.50
</region>

<region>
end=48000
hikey=B2
hivel=127
lokey=A#2
lovel=64
offset=15226
pitch_keycenter=A#2
sample=Fender_Stratocaster_Muted_Staccato_RR2_FF_A#3.opus
volume=+3.39
</region>

<region>
end=48000
hikey=C#3
hivel=127
lokey=C3
lovel=64
offset=18660
pitch_keycenter=C3
sample=Fender_Stratocaster_Muted_Staccato_RR2_FF_C4.opus
volume=+7.07
</region>

<region>
end=33253
hikey=D#3
hivel=127
lokey=D3
lovel=64
offset=19551
pitch_keycenter=D3
sample=Fender_Stratocaster_Muted_Staccato_RR2_FF_D4.opus
volume=+9.06
</region>

<region>
end=48000
hikey=F3
hivel=127
lokey=E3
lovel=64
offset=19140
pitch_keycenter=E3
sample=Fender_Stratocaster_Muted_Staccato_RR2_FF_E4.opus
volume=+5.45
</region>

<region>
end=48000
hikey=G3
hivel=127
lokey=F#3
lovel=64
offset=18578
pitch_keycenter=F#3
sample=Fender_Stratocaster_Muted_Staccato_RR2_FF_F#4.opus
volume=+12.09
</region>

<region>
end=48000
hikey=A3
hivel=127
lokey=G#3
lovel=64
offset=15564
pitch_keycenter=G#3
sample=Fender_Stratocaster_Muted_Staccato_RR2_FF_G#4.opus
volume=+11.76
</region>

<region>
end=35952
hikey=B3
hivel=127
lokey=A#3
lovel=64
offset=18779
pitch_keycenter=A#3
sample=Fender_Stratocaster_Muted_Staccato_RR2_FF_A#4.opus
volume=+11.77
</region>

<region>
end=48000
hikey=C#4
hivel=127
lokey=C4
lovel=64
offset=18103
sample=Fender_Stratocaster_Muted_Staccato_RR2_FF_C5.opus
volume=+10.35
</region>

<region>
end=48000
hikey=D#4
hivel=127
lokey=D4
lovel=64
offset=20995
pitch_keycenter=D4
sample=Fender_Stratocaster_Muted_Staccato_RR2_FF_D5.opus
volume=+11.04
</region>

<region>
end=48000
hikey=F4
hivel=127
lokey=E4
lovel=64
offset=18161
pitch_keycenter=E4
sample=Fender_Stratocaster_Muted_Staccato_RR2_FF_E5.opus
volume=+8.15
</region>

<region>
end=48000
hikey=G4
hivel=127
lokey=F#4
lovel=64
offset=18282
pitch_keycenter=F#4
sample=Fender_Stratocaster_Muted_Staccato_RR2_FF_F#5.opus
volume=+7.33
</region>

<region>
end=48000
hikey=A4
hivel=127
lokey=G#4
lovel=64
offset=10550
pitch_keycenter=G#4
sample=Fender_Stratocaster_Muted_Staccato_RR2_FF_G#5.opus
volume=+6.79
</region>

<region>
end=30370
hikey=B4
hivel=127
lokey=A#4
lovel=64
offset=7369
pitch_keycenter=A#4
sample=Fender_Stratocaster_Muted_Staccato_RR2_FF_A#5.opus
volume=+6.79
</region>

<region>
end=48000
hikey=C#5
hivel=127
lokey=C5
lovel=64
offset=19065
pitch_keycenter=C5
sample=Fender_Stratocaster_Muted_Staccato_RR2_FF_C6.opus
volume=+7.43
</region>

<region>
end=48000
hikey=D#5
hivel=127
lokey=D5
lovel=64
offset=18867
pitch_keycenter=D5
sample=Fender_Stratocaster_Muted_Staccato_RR2_FF_D6.opus
volume=+9.00
</region>

<region>
end=48000
hikey=F5
hivel=127
lokey=E5
lovel=64
offset=8204
pitch_keycenter=E5
sample=Fender_Stratocaster_Muted_Staccato_RR2_FF_E6.opus
volume=+7.71
</region>

<region>
end=48000
hikey=G5
hivel=127
lokey=F#5
lovel=64
offset=15268
pitch_keycenter=F#5
sample=Fender_Stratocaster_Muted_Staccato_RR2_FF_F#6.opus
volume=+10.60
</region>

<region>
end=48000
hikey=A5
hivel=127
lokey=G#5
lovel=64
offset=18450
pitch_keycenter=G#5
sample=Fender_Stratocaster_Muted_Staccato_RR2_FF_G#6.opus
volume=+13.01
</region>

<region>
end=48000
hikey=B5
hivel=127
lokey=A#5
lovel=64
offset=17547
pitch_keycenter=A#5
sample=Fender_Stratocaster_Muted_Staccato_RR2_FF_A#6.opus
volume=+13.00
</region>

<region>
end=48000
hikey=C#6
hivel=127
lokey=C6
lovel=64
offset=18704
pitch_keycenter=C6
sample=Fender_Stratocaster_Muted_Staccato_RR2_FF_C7.opus
volume=+9.94
</region>
</group>

<group>
group_label=FF_RR3
seq_length=4
seq_position=3

<region>
end=48000
hikey=D#2
hivel=127
lokey=C2
lovel=64
offset=17632
pitch_keycenter=D2
sample=Fender_Stratocaster_Muted_Staccato_RR3_FF_D3.opus
volume=+1.06
</region>

<region>
end=48000
hikey=F2
hivel=127
lokey=E2
lovel=64
offset=18793
pitch_keycenter=E2
sample=Fender_Stratocaster_Muted_Staccato_RR3_FF_E3.opus
volume=+3.45
</region>

<region>
end=33924
hikey=G2
hivel=127
lokey=F#2
lovel=64
offset=8543
pitch_keycenter=F#2
sample=Fender_Stratocaster_Muted_Staccato_RR3_FF_F#3.opus
volume=+4.09
</region>

<region>
end=44105
hikey=A2
hivel=127
lokey=G#2
lovel=64
offset=17073
pitch_keycenter=G#2
sample=Fender_Stratocaster_Muted_Staccato_RR3_FF_G#3.opus
volume=+3.34
</region>

<region>
end=33266
hikey=B2
hivel=127
lokey=A#2
lovel=64
offset=11361
pitch_keycenter=A#2
sample=Fender_Stratocaster_Muted_Staccato_RR3_FF_A#3.opus
volume=+2.26
</region>

<region>
end=48000
hikey=C#3
hivel=127
lokey=C3
lovel=64
offset=18002
pitch_keycenter=C3
sample=Fender_Stratocaster_Muted_Staccato_RR3_FF_C4.opus
volume=+7.21
</region>

<region>
end=38978
hikey=D#3
hivel=127
lokey=D3
lovel=64
offset=17423
pitch_keycenter=D3
sample=Fender_Stratocaster_Muted_Staccato_RR3_FF_D4.opus
volume=+8.04
</region>

<region>
end=48000
hikey=F3
hivel=127
lokey=E3
lovel=64
offset=17803
pitch_keycenter=E3
sample=Fender_Stratocaster_Muted_Staccato_RR3_FF_E4.opus
volume=+5.43
</region>

<region>
end=48000
hikey=G3
hivel=127
lokey=F#3
lovel=64
offset=17564
pitch_keycenter=F#3
sample=Fender_Stratocaster_Muted_Staccato_RR3_FF_F#4.opus
volume=+11.98
</region>

<region>
end=48000
hikey=A3
hivel=127
lokey=G#3
lovel=64
offset=15244
pitch_keycenter=G#3
sample=Fender_Stratocaster_Muted_Staccato_RR3_FF_G#4.opus
volume=+11.79
</region>

<region>
end=36441
hikey=B3
hivel=127
lokey=A#3
lovel=64
offset=17959
pitch_keycenter=A#3
sample=Fender_Stratocaster_Muted_Staccato_RR3_FF_A#4.opus
volume=+11.80
</region>

<region>
end=48000
hikey=C#4
hivel=127
lokey=C4
lovel=64
offset=18699
sample=Fender_Stratocaster_Muted_Staccato_RR3_FF_C5.opus
volume=+11.93
</region>

<region>
end=48000
hikey=D#4
hivel=127
lokey=D4
lovel=64
offset=19171
pitch_keycenter=D4
sample=Fender_Stratocaster_Muted_Staccato_RR3_FF_D5.opus
volume=+9.50
</region>

<region>
end=48000
hikey=F4
hivel=127
lokey=E4
lovel=64
offset=18371
pitch_keycenter=E4
sample=Fender_Stratocaster_Muted_Staccato_RR3_FF_E5.opus
volume=+7.96
</region>

<region>
end=48000
hikey=G4
hivel=127
lokey=F#4
lovel=64
offset=19230
pitch_keycenter=F#4
sample=Fender_Stratocaster_Muted_Staccato_RR3_FF_F#5.opus
volume=+9.70
</region>

<region>
end=48000
hikey=A4
hivel=127
lokey=G#4
lovel=64
offset=18514
pitch_keycenter=G#4
sample=Fender_Stratocaster_Muted_Staccato_RR3_FF_G#5.opus
volume=+6.06
</region>

<region>
end=48000
hikey=B4
hivel=127
lokey=A#4
lovel=64
offset=9569
pitch_keycenter=A#4
sample=Fender_Stratocaster_Muted_Staccato_RR3_FF_A#5.opus
volume=+6.73
</region>

<region>
end=48000
hikey=C#5
hivel=127
lokey=C5
lovel=64
offset=8956
pitch_keycenter=C5
sample=Fender_Stratocaster_Muted_Staccato_RR3_FF_C6.opus
volume=+6.35
</region>

<region>
end=48000
hikey=D#5
hivel=127
lokey=D5
lovel=64
offset=18201
pitch_keycenter=D5
sample=Fender_Stratocaster_Muted_Staccato_RR3_FF_D6.opus
volume=+9.05
</region>

<region>
end=48000
hikey=F5
hivel=127
lokey=E5
lovel=64
offset=17483
pitch_keycenter=E5
sample=Fender_Stratocaster_Muted_Staccato_RR3_FF_E6.opus
volume=+8.11
</region>

<region>
end=48000
hikey=G5
hivel=127
lokey=F#5
lovel=64
offset=18211
pitch_keycenter=F#5
sample=Fender_Stratocaster_Muted_Staccato_RR3_FF_F#6.opus
volume=+10.64
</region>

<region>
end=48000
hikey=A5
hivel=127
lokey=G#5
lovel=64
offset=18042
pitch_keycenter=G#5
sample=Fender_Stratocaster_Muted_Staccato_RR3_FF_G#6.opus
volume=+12.94
</region>

<region>
end=48000
hikey=B5
hivel=127
lokey=A#5
lovel=64
offset=18144
pitch_keycenter=A#5
sample=Fender_Stratocaster_Muted_Staccato_RR3_FF_A#6.opus
volume=+11.10
</region>

<region>
end=48000
hikey=C#6
hivel=127
lokey=C6
lovel=64
offset=19025
pitch_keycenter=C6
sample=Fender_Stratocaster_Muted_Staccato_RR3_FF_C7.opus
volume=+8.31
</region>
</group>

<group>
group_label=FF_RR4
seq_length=4
seq_position=4

<region>
end=48000
hikey=D#2
hivel=127
lokey=C2
lovel=64
offset=17931
pitch_keycenter=D2
sample=Fender_Stratocaster_Muted_Staccato_RR4_FF_D3.opus
volume=+4.89
</region>

<region>
end=48000
hikey=F2
hivel=127
lokey=E2
lovel=64
offset=19672
pitch_keycenter=E2
sample=Fender_Stratocaster_Muted_Staccato_RR4_FF_E3.opus
volume=+4.16
</region>

<region>
end=48000
hikey=G2
hivel=127
lokey=F#2
lovel=64
offset=18043
pitch_keycenter=F#2
sample=Fender_Stratocaster_Muted_Staccato_RR4_FF_F#3.opus
volume=+3.95
</region>

<region>
end=48000
hikey=A2
hivel=127
lokey=G#2
lovel=64
offset=15608
pitch_keycenter=G#2
sample=Fender_Stratocaster_Muted_Staccato_RR4_FF_G#3.opus
volume=+3.01
</region>

<region>
end=29625
hikey=B2
hivel=127
lokey=A#2
lovel=64
offset=8353
pitch_keycenter=A#2
sample=Fender_Stratocaster_Muted_Staccato_RR4_FF_A#3.opus
volume=+1.95
</region>

<region>
end=48000
hikey=C#3
hivel=127
lokey=C3
lovel=64
offset=19099
pitch_keycenter=C3
sample=Fender_Stratocaster_Muted_Staccato_RR4_FF_C4.opus
volume=+9.86
</region>

<region>
end=48000
hikey=D#3
hivel=127
lokey=D3
lovel=64
offset=17729
pitch_keycenter=D3
sample=Fender_Stratocaster_Muted_Staccato_RR4_FF_D4.opus
volume=+8.02
</region>

<region>
end=48000
hikey=F3
hivel=127
lokey=E3
lovel=64
offset=18147
pitch_keycenter=E3
sample=Fender_Stratocaster_Muted_Staccato_RR4_FF_E4.opus
volume=+6.21
</region>

<region>
end=48000
hikey=G3
hivel=127
lokey=F#3
lovel=64
offset=17654
pitch_keycenter=F#3
sample=Fender_Stratocaster_Muted_Staccato_RR4_FF_F#4.opus
volume=+12.18
</region>

<region>
end=48000
hikey=A3
hivel=127
lokey=G#3
lovel=64
offset=17388
pitch_keycenter=G#3
sample=Fender_Stratocaster_Muted_Staccato_RR4_FF_G#4.opus
volume=+12.94
</region>

<region>
end=48000
hikey=B3
hivel=127
lokey=A#3
lovel=64
offset=18990
pitch_keycenter=A#3
sample=Fender_Stratocaster_Muted_Staccato_RR4_FF_A#4.opus
volume=+11.92
</region>

<region>
end=48000
hikey=C#4
hivel=127
lokey=C4
lovel=64
offset=19137
sample=Fender_Stratocaster_Muted_Staccato_RR4_FF_C5.opus
volume=+10.84
</region>

<region>
end=48000
hikey=D#4
hivel=127
lokey=D4
lovel=64
offset=18867
pitch_keycenter=D4
sample=Fender_Stratocaster_Muted_Staccato_RR4_FF_D5.opus
volume=+8.54
</region>

<region>
end=48000
hikey=F4
hivel=127
lokey=E4
lovel=64
offset=16000
pitch_keycenter=E4
sample=Fender_Stratocaster_Muted_Staccato_RR4_FF_E5.opus
volume=+7.13
</region>

<region>
end=48000
hikey=G4
hivel=127
lokey=F#4
lovel=64
offset=19300
pitch_keycenter=F#4
sample=Fender_Stratocaster_Muted_Staccato_RR4_FF_F#5.opus
volume=+8.14
</region>

<region>
end=48000
hikey=A4
hivel=127
lokey=G#4
lovel=64
offset=8478
pitch_keycenter=G#4
sample=Fender_Stratocaster_Muted_Staccato_RR4_FF_G#5.opus
volume=+5.94
</region>

<region>
end=48000
hikey=B4
hivel=127
lokey=A#4
lovel=64
offset=17601
pitch_keycenter=A#4
sample=Fender_Stratocaster_Muted_Staccato_RR4_FF_A#5.opus
volume=+7.03
</region>

<region>
end=31532
hikey=C#5
hivel=127
lokey=C5
lovel=64
offset=17817
pitch_keycenter=C5
sample=Fender_Stratocaster_Muted_Staccato_RR4_FF_C6.opus
volume=+6.44
</region>

<region>
end=48000
hikey=D#5
hivel=127
lokey=D5
lovel=64
offset=18810
pitch_keycenter=D5
sample=Fender_Stratocaster_Muted_Staccato_RR4_FF_D6.opus
volume=+9.36
</region>

<region>
end=48000
hikey=F5
hivel=127
lokey=E5
lovel=64
offset=16788
pitch_keycenter=E5
sample=Fender_Stratocaster_Muted_Staccato_RR4_FF_E6.opus
volume=+8.33
</region>

<region>
end=48000
hikey=G5
hivel=127
lokey=F#5
lovel=64
offset=16651
pitch_keycenter=F#5
sample=Fender_Stratocaster_Muted_Staccato_RR4_FF_F#6.opus
volume=+10.34
</region>

<region>
end=48000
hikey=A5
hivel=127
lokey=G#5
lovel=64
offset=18803
pitch_keycenter=G#5
sample=Fender_Stratocaster_Muted_Staccato_RR4_FF_G#6.opus
volume=+12.92
</region>

<region>
end=48000
hikey=B5
hivel=127
lokey=A#5
lovel=64
offset=17582
pitch_keycenter=A#5
sample=Fender_Stratocaster_Muted_Staccato_RR4_FF_A#6.opus
volume=+11.05
</region>

<region>
end=48000
hikey=C#6
hivel=127
lokey=C6
lovel=64
offset=18089
pitch_keycenter=C6
sample=Fender_Stratocaster_Muted_Staccato_RR4_FF_C7.opus
volume=+8.37
</region>
</group>